<svg width="46" height="46" viewBox="0 0 46 46" fill="none" xmlns="http://www.w3.org/2000/svg">
<g filter="url(#filter0_d_172_196)">
<path d="M41 19C41 15.4399 39.9443 11.9598 37.9665 8.99973C35.9886 6.03965 33.1774 3.73254 29.8883 2.37017C26.5992 1.00779 22.98 0.651328 19.4884 1.34586C15.9967 2.0404 12.7894 3.75473 10.2721 6.27207C7.75473 8.78942 6.0404 11.9967 5.34586 15.4884C4.65133 18.98 5.00779 22.5992 6.37017 25.8883C7.73254 29.1774 10.0396 31.9886 12.9997 33.9665C15.9598 35.9443 19.4399 37 23 37C27.7723 36.9948 32.3477 35.0968 35.7222 31.7222C39.0968 28.3477 40.9948 23.7723 41 19H41ZM8 19C8 16.0333 8.87973 13.1332 10.528 10.6664C12.1762 8.1997 14.5189 6.27712 17.2597 5.1418C20.0006 4.00649 23.0166 3.70944 25.9264 4.28822C28.8361 4.86699 31.5088 6.29561 33.6066 8.3934C35.7044 10.4912 37.133 13.1639 37.7118 16.0736C38.2906 18.9834 37.9935 21.9994 36.8582 24.7403C35.7229 27.4811 33.8003 29.8238 31.3336 31.472C28.8668 33.1203 25.9667 34 23 34C19.0231 33.9956 15.2103 32.4139 12.3982 29.6018C9.58612 26.7897 8.00436 22.9769 8 19V19ZM21.3185 27.5605C21.5997 27.2792 21.7577 26.8977 21.7577 26.5C21.7577 26.1023 21.5997 25.7208 21.3185 25.4395L16.3805 20.5L32 20.4895C32.3978 20.4895 32.7794 20.3315 33.0607 20.0502C33.342 19.7689 33.5 19.3873 33.5 18.9895C33.5 18.5917 33.342 18.2101 33.0607 17.9288C32.7794 17.6475 32.3978 17.4895 32 17.4895L16.379 17.5L21.3185 12.5605C21.4663 12.4252 21.5854 12.2617 21.6689 12.0796C21.7524 11.8975 21.7986 11.7005 21.8048 11.5002C21.8109 11.3 21.7769 11.1005 21.7047 10.9136C21.6325 10.7268 21.5235 10.5562 21.3844 10.4121C21.2452 10.268 21.0785 10.1533 20.8943 10.0746C20.71 9.996 20.5118 9.95507 20.3115 9.95427C20.1112 9.95346 19.9127 9.99279 19.7278 10.07C19.5429 10.1471 19.3753 10.2605 19.235 10.4035L19.1975 10.4395L13.8185 15.817C13.4006 16.2349 13.069 16.731 12.8428 17.277C12.6166 17.823 12.5002 18.4082 12.5002 18.9992C12.5002 19.5903 12.6166 20.1755 12.8428 20.7215C13.069 21.2675 13.4006 21.7636 13.8185 22.1815V22.1815L19.1975 27.5605C19.4788 27.8417 19.8603 27.9997 20.258 27.9997C20.6557 27.9997 21.0372 27.8417 21.3185 27.5605V27.5605Z" fill="#EE5861"/>
</g>
<defs>
<filter id="filter0_d_172_196" x="0" y="-1.14441e-05" width="46" height="46" filterUnits="userSpaceOnUse" color-interpolation-filters="sRGB">
<feFlood flood-opacity="0" result="BackgroundImageFix"/>
<feColorMatrix in="SourceAlpha" type="matrix" values="0 0 0 0 0 0 0 0 0 0 0 0 0 0 0 0 0 0 127 0" result="hardAlpha"/>
<feOffset dy="4"/>
<feGaussianBlur stdDeviation="2.5"/>
<feComposite in2="hardAlpha" operator="out"/>
<feColorMatrix type="matrix" values="0 0 0 0 0 0 0 0 0 0 0 0 0 0 0 0 0 0 0.36 0"/>
<feBlend mode="normal" in2="BackgroundImageFix" result="effect1_dropShadow_172_196"/>
<feBlend mode="normal" in="SourceGraphic" in2="effect1_dropShadow_172_196" result="shape"/>
</filter>
</defs>
</svg>
