<svg width="46" height="46" viewBox="0 0 46 46" fill="none" xmlns="http://www.w3.org/2000/svg">
<g filter="url(#filter0_d_172_197)">
<path d="M37.4 8.2C36.6336 8.70625 35.8602 9.35312 35.0938 10.1336C36.9148 12.6156 37.9977 15.6812 38.0047 19C38.0047 27.2828 31.2898 33.9977 23.007 33.9977C14.7242 33.9977 8.00234 27.2828 8.00234 19C8.00234 10.7172 14.7172 4.00234 23 4.00234C26.1852 4.00234 29.1453 5.00078 31.5711 6.70234C32.3305 5.92891 33.1039 5.25391 33.8844 4.67031C30.8609 2.36406 27.0922 1 23 1C13.0648 1.01406 5.01406 9.06484 5 19C5 28.9422 13.0578 37 23 37C32.9422 37 41 28.9422 41 19C41 14.95 39.6641 11.2094 37.4 8.2Z" fill="#95DB74"/>
<path d="M25.6578 17.0242C24.3078 19.6539 23.2602 22.1359 22.5571 23.957L16.5664 13.9023C16.1516 13.1992 15.2446 12.9742 14.5414 13.3891C13.8383 13.8039 13.6133 14.7109 14.0282 15.4141L21.6219 28.1477C21.8891 28.5977 22.3743 28.8648 22.8875 28.8648C22.9438 28.8648 23 28.8648 23.0563 28.8578C23.6328 28.7945 24.118 28.3938 24.2938 27.8383C24.35 27.6625 30.0524 10.0141 38.5672 6.44922C39.3196 6.13281 39.6711 5.26797 39.3618 4.51563C39.0453 3.76328 38.1805 3.41172 37.4282 3.72109C33.2586 5.47891 29.3 9.95078 25.6578 17.0242Z" fill="#95DB74"/>
</g>
<defs>
<filter id="filter0_d_172_197" x="0" y="0" width="46" height="46" filterUnits="userSpaceOnUse" color-interpolation-filters="sRGB">
<feFlood flood-opacity="0" result="BackgroundImageFix"/>
<feColorMatrix in="SourceAlpha" type="matrix" values="0 0 0 0 0 0 0 0 0 0 0 0 0 0 0 0 0 0 127 0" result="hardAlpha"/>
<feOffset dy="4"/>
<feGaussianBlur stdDeviation="2.5"/>
<feColorMatrix type="matrix" values="0 0 0 0 0 0 0 0 0 0 0 0 0 0 0 0 0 0 0.36 0"/>
<feBlend mode="normal" in2="BackgroundImageFix" result="effect1_dropShadow_172_197"/>
<feBlend mode="normal" in="SourceGraphic" in2="effect1_dropShadow_172_197" result="shape"/>
</filter>
</defs>
</svg>
